<svg xmlns="http://www.w3.org/2000/svg" width="60" height="63" viewBox="0 0 60 63"><g fill="none" fill-rule="evenodd"><rect width="52" height="39" x="7" y="23" stroke="#08B3EC" stroke-width="2" rx="4"/><path fill="#FFD2D2" d="M12 35h42v22H12z"/><path stroke="#08B3EC" stroke-linecap="round" stroke-width="2" d="M13 55l6.667-4.711 5.167 2.819 11.499-9.417 8.275 6.598L53 42.324"/><rect width="52" height="40" x="1" y="1" fill="#FFF" stroke="#08B3EC" stroke-width="2" rx="4"/><circle cx="11.5" cy="5.5" r="1.5" fill="#2855AF"/><circle cx="16.5" cy="5.5" r="1.5" fill="#2855AF"/><path fill="#FFD2D2" stroke="#08B3EC" stroke-width="2" d="M13.035 28.373l-1.737.308c-.576.112-1.06.234-1.505.41-1.209.48-2.086.956-2.487 2.11-.176.507-.265.949-.263 1.779.218.72 1.319 1.67 3.295 2.279 1.428.44 3.26.741 5.165.74 1.833.002 3.59-.307 4.988-.737 2.053-.63 3.229-1.602 3.508-2.616a4.29 4.29 0 00-.135-.847l-.14-.527c-.335-1.212-1.417-1.79-2.822-2.295-.3-.093-.77-.2-1.804-.384-.459-.083-.808-.14-1.082-.181.056.303.06.586-.024.798-.127.32-.506.621-.94.863-.47.262-1.036.445-1.603.442a3.206 3.206 0 01-1.561-.445c-.41-.237-.765-.533-.878-.847-.082-.23-.058-.532.025-.85z"/><path fill="#FFF" stroke="#08B3EC" stroke-width="2" d="M15.5 15.008c-1.664.164-2.907.568-3.675 1.313-.7.678-.924 1.636-.786 2.828.465 4.028.6 4.337 1.202 5.111l.085.109c1.003 1.023 2.257 1.607 3.164 1.63h.02c.906-.023 2.16-.606 3.163-1.629l.086-.11c.603-.774.737-1.083 1.202-5.111.138-1.192-.087-2.15-.786-2.828-.768-.745-2.011-1.15-3.675-1.313z"/><circle cx="6.5" cy="5.5" r="1.5" fill="#2855AF"/><path stroke="#2855AF" stroke-linecap="round" stroke-linejoin="round" stroke-width="2" d="M30 16h17m-17 7h15m-15 4h15m-15 4h8"/><path fill="#FFF" stroke="#08B3EC" stroke-linecap="round" stroke-width="2" d="M5 10h44"/></g></svg>