<svg xmlns="http://www.w3.org/2000/svg" width="60" height="65" viewBox="0 0 60 65"><g fill="none" fill-rule="evenodd"><path stroke="#08B3EC" stroke-width="2" d="M6.035 58.091L39.765 60"/><g transform="matrix(-1 0 0 1 60 0)"><path stroke="#08B3EC" stroke-width="2" d="M17.867 11.948c12 0 14.133 12.5 24 12.5"/><circle cx="47.233" cy="24" r="5" fill="#2855AF"/><rect width="22" height="22" x="1" y="1" fill="#FFD2D2" stroke="#08B3EC" stroke-width="2" rx="4"/><rect width="22" height="22" x="37" y="13" stroke="#08B3EC" stroke-width="2" rx="4"/><ellipse cx="12.883" cy="12.052" fill="#2855AF" rx="4.883" ry="5.052"/></g><circle cx="7.883" cy="54.883" r="4.883" fill="#08B3EC"/><path stroke="#08B3EC" stroke-width="2" d="M6.004 51.5L32.988 41"/><g stroke="#2855AF" stroke-width="2"><path d="M29.418 52.459A14.936 14.936 0 0129 49c0-1.192.154-2.346.418-3.459h3.672c.198-.627.454-1.227.753-1.805l-2.6-2.6a15.04 15.04 0 014.892-4.89l2.6 2.599c.576-.3 1.177-.556 1.805-.754v-3.673A14.95 14.95 0 0143.999 34c1.194 0 2.348.154 3.46.418v3.672c.628.198 1.228.454 1.804.754l2.6-2.6a15.064 15.064 0 014.893 4.894l-2.6 2.599c.298.578.554 1.178.754 1.805h3.672C58.845 46.654 59 47.808 59 49a14.99 14.99 0 01-.418 3.459H54.91c-.2.629-.456 1.229-.753 1.805l2.599 2.6a15.052 15.052 0 01-4.891 4.892l-2.601-2.6c-.576.3-1.176.556-1.804.755v3.673A14.938 14.938 0 0144 64c-1.192 0-2.346-.152-3.458-.416V59.91a11.388 11.388 0 01-1.806-.754l-2.599 2.6a15.052 15.052 0 01-4.892-4.894l2.6-2.599a11.243 11.243 0 01-.753-1.805h-3.673z"/><path d="M44 55a6 6 0 100-12 6 6 0 100 12h0z"/></g></g></svg>