<svg xmlns="http://www.w3.org/2000/svg" width="56" height="61" viewBox="0 0 56 61"><g fill="none" fill-rule="evenodd" transform="translate(-2)"><path fill="#FFF" stroke="#08B3EC" stroke-width="2" d="M54 17H6a2.99 2.99 0 00-2.121.879A2.99 2.99 0 003 20v39a.997.997 0 001 1h52a.997.997 0 001-1V20a2.99 2.99 0 00-.879-2.121A2.99 2.99 0 0054 17z"/><path fill="#FFF" stroke="#2855AF" stroke-width="2" d="M20.898 8.447l-2.335 2.264-2.407-2.334-2.523 2.334-2.26-2.301L10 9.74V23h12V9.696l-1.102-1.249z"/><rect width="26" height="10" x="31" y="1" fill="#FFD2D2" stroke="#08B3EC" stroke-width="2" rx="5"/><path d="M0 0h60v66H0z"/><path fill="#FFF" stroke="#08B3EC" stroke-width="2" d="M41 11h6v6h-6z"/><circle cx="47" cy="53" r="2" stroke="#2855AF" stroke-width="2"/><path stroke="#08B3EC" stroke-linecap="round" stroke-linejoin="round" stroke-width="2" d="M38 38l2-.032M8 23h16"/><path stroke="#2855AF" stroke-linecap="round" stroke-linejoin="round" stroke-width="2" d="M14 15h4"/><path stroke="#08B3EC" stroke-linecap="round" stroke-linejoin="round" stroke-width="2" d="M11 31h10m-10 4h4"/><path stroke="#2855AF" stroke-linecap="round" stroke-linejoin="round" stroke-width="2" d="M14 19h4"/><path stroke="#08B3EC" stroke-linecap="round" stroke-linejoin="round" stroke-width="2" d="M8 53h28m2-30h12m-12 7h2m8 0h2m-7 0h2m-7 4h2m8 0h2m-2 4h2m-7 0h2m-2-4h2M3.534 46h53"/></g></svg>