<svg xmlns="http://www.w3.org/2000/svg" width="60" height="67" viewBox="0 0 60 67"><g fill="none" fill-rule="evenodd"><path d="M0 2h60v50H0z"/><path d="M0 0h60v67H0z"/><path fill="#FFF" stroke="#08B3EC" stroke-width="2" d="M35.485 1L13 1.2V43l33-.169v-30.44L35.485 1z"/><path fill="#FFF" stroke="#08B3EC" stroke-width="2" d="M36 1.48v9.059c0 .715.257 1.33.717 1.76.484.456 1.175.701 1.967.701h6.704l.411-.83L36 1.48z"/><g stroke="#08B3EC" stroke-width="2"><path fill="#FFF" d="M23.485 12L1 12.2V54l33-.169v-30.44L23.485 12z"/><path fill="#FFF" d="M24 12.48v9.059c0 .715.257 1.33.717 1.76.484.456 1.175.701 1.967.701h6.704l.411-.83L24 12.48z"/><path stroke-linecap="round" d="M7.994 22H19M7.994 30H27M7.994 35H27M7.994 40H27"/></g><path fill="#FFF" stroke="#2855AF" stroke-width="2" d="M40.34 42c-1.995 0-3.849.56-5.38 1.522-1.556.978-2.78 2.37-3.47 4.006-.164.389-.298.79-.4 1.199a6.401 6.401 0 00-1.017-.719 6.6 6.6 0 00-3.275-.853c-1.725 0-3.29.643-4.408 1.747-1.08 1.066-1.735 2.56-1.727 4.294.002.349.03.688.084 1.016a6.818 6.818 0 00-1.022-.014c-1.614.1-3.061.764-4.1 1.786C14.62 56.969 14 58.29 14 59.746c0 1.527.682 2.904 1.771 3.903 1.122 1.029 2.674 1.659 4.384 1.659l31.069-.002c2.165-.038 4.122-.863 5.536-2.184 1.38-1.29 2.24-3.056 2.24-5.009 0-1.986-.891-3.779-2.346-5.073-1.48-1.317-3.54-2.118-5.862-2.116-.334 0-.662.017-.984.05a7.93 7.93 0 00-.014-.974c-.171-2.235-1.284-4.23-2.965-5.665-1.7-1.452-3.983-2.335-6.488-2.335z"/><path stroke="#2855AF" stroke-width="10" d="M-871-2522h7594.5v6210H-871z"/></g></svg>