<svg xmlns="http://www.w3.org/2000/svg" width="60" height="78" viewBox="0 0 60 78"><g fill="none" fill-rule="evenodd" stroke-width="2"><path fill="#FFD2D2" stroke="#08B3EC" d="M28.015 45c-3.83 0-15.569 1.774-19.01 3.451l-.497.242c-3.012 1.46-5.57 2.6-6.61 6.265-.518 1.827-.888 5.583-.899 8.587.26.879 1.015 1.62 2.077 2.288 1.392.877 3.312 1.6 5.614 2.192 5.19 1.334 12.272 1.976 19.787 1.974 6.938-.027 13.54-.813 18.505-2.13 4.193-1.113 7.37-2.501 8.016-4.325-.013-2.53-.348-6.285-.88-8.639-.861-3.817-4.077-5.111-7.06-6.439C43.897 47.06 31.853 45 28.015 45z"/><path fill="#FFF" stroke="#08B3EC" d="M35 31.214l-7.5 5.61-7.5-5.61v12.53c0 1.93.617 3.55 1.874 4.664 1.25 1.108 3.095 1.705 5.462 1.722 2.394.017 4.326-.595 5.657-1.73C34.307 47.282 35 45.662 35 43.744v-12.53z"/><path fill="#FFF" stroke="#08B3EC" d="M28.549 8.603c-5.05.495-8.758 1.847-11.06 4.16-2.24 2.249-3.079 5.393-2.633 9.387C16.199 34.172 16.721 35 18.449 37.3l.283.378c3.078 3.287 6.971 5.073 9.747 5.146l.002.002h.136l.003-.002c2.773-.073 6.664-1.857 9.741-5.14l.288-.384c1.728-2.299 2.25-3.128 3.593-15.15.446-3.994-.393-7.138-2.632-9.386-2.303-2.314-6.01-3.666-11.06-4.161z"/><path stroke="#08B3EC" d="M42.081 23.037c3.825-.28 5.42 1.01 4.783 3.867-.955 4.287-2.59 4.947-3.835 5.059-.83.075-1.507.036-2.029-.116m-26.081-8.81c-3.825-.28-5.419 1.01-4.782 3.867.955 4.287 2.59 4.947 3.835 5.059.83.075 1.507.036 2.028-.116"/><path fill="#FFF" stroke="#08B3EC" d="M32.119 1c.114.285.4.604.564.863.344.544.507 1.008.381 1.554-.113.49-.408.82-.864 1.126a11.46 11.46 0 00-.695-.54c-2.496-1.8-4.301-1.781-6.203-1.782-4.803-.004-9.245 2.435-11.862 6.57-2.289 3.618-3.17 8.515-1.759 14.2.227-.014.453-.044.692-.073.175-.021.355-.043.544-.062l.059-.006h.042c2.149 0 14.856-5.988 19.792-10.91.333-.332.67-.7 1.011-1.096.193.47.394.934.603 1.385 2.326 5.032 6.452 10.384 9.17 10.747.427.002.791-.773 1.01-1.087 1.1-1.58 1.526-3.895 1.364-6.386a17.781 17.781 0 00-2.393-7.734C41.338 3.974 37.539 1 32.119.999z"/><path stroke="#2855AF" stroke-linecap="round" stroke-linejoin="round" d="M28.939 21.913l-.878 4.865c-.268 1.483.383 2.986 1.453 3.357.158.055.32.082.484.082h.438m-4.87 5.233c3.224 1.027 5.89.167 8-2.58m-14.077-8.709c1.931-1.369 3.552-1.369 4.863 0m8.518.187c1.934-1.623 3.557-1.623 4.87 0"/><g transform="translate(36 54)"><circle cx="12" cy="12" r="11" fill="#FFF" stroke="#2855AF"/><path stroke="#08B3EC" stroke-linecap="round" stroke-linejoin="round" d="M17 12H7m4.991-4.972v9.808"/></g></g></svg>