<svg xmlns="http://www.w3.org/2000/svg" width="60" height="66" viewBox="0 0 60 66"><g fill="none" fill-rule="evenodd"><path stroke="#2855AF" stroke-width="2" d="M19.389 24H38.5m1.206-5H18.294l2.609 10h16.194l2.609-10z"/><path stroke="#2855AF" stroke-linecap="round" stroke-linejoin="round" stroke-width="2" d="M21.5 33.029h14.317L41.5 15h4.75"/><path stroke="#2855AF" stroke-width="2" d="M26.164 19.154v9"/><rect width="58" height="45" x="1" y="1" stroke="#08B3EC" stroke-width="2" rx="5"/><circle cx="7.5" cy="5.5" r="1.5" fill="#2855AF"/><circle cx="12.5" cy="5.5" r="1.5" fill="#2855AF"/><circle cx="17.5" cy="5.5" r="1.5" fill="#2855AF"/><path fill="#FFF" stroke="#08B3EC" stroke-linecap="round" stroke-linejoin="round" stroke-width="2" d="M5 9h50"/><path stroke="#2855AF" stroke-width="2" d="M16 47c0 11.11 5 13 13.215 13H46"/><path fill="#2855AF" d="M46 56h5a1 1 0 010 2h-5v-2zm0 6h5a1 1 0 010 2h-5v-2z"/><path fill="#FFD2D2" stroke="#2855AF" stroke-width="2" d="M45 55h-4a2.99 2.99 0 00-2.121.879A2.99 2.99 0 0038 58v4c0 .828.336 1.578.879 2.121A2.99 2.99 0 0041 65h4V55z"/><circle cx="23" cy="37" r="2" fill="#2855AF"/><circle cx="35" cy="37" r="2" fill="#2855AF"/><path stroke="#2855AF" stroke-width="2" d="M32 19v9"/></g></svg>