<svg width="64" height="64" fill="none" xmlns="http://www.w3.org/2000/svg"><path d="M47 15c0 8.284-6.716 15-15 15-8.284 0-15-6.716-15-15 0-8.284 6.716-15 15-15 8.284 0 15 6.716 15 15z" fill="#FFD2D2"/><path fill-rule="evenodd" clip-rule="evenodd" d="M32 28c7.18 0 13-5.82 13-13S39.18 2 32 2 19 7.82 19 15s5.82 13 13 13zm0 2c8.284 0 15-6.716 15-15 0-8.284-6.716-15-15-15-8.284 0-15 6.716-15 15 0 8.284 6.716 15 15 15z" fill="#2855AF"/><path d="M27.811 15.518c1.8 0 3.051-1.305 3.051-3.404 0-2.1-1.252-3.404-3.051-3.404-1.8 0-3.07 1.323-3.07 3.404s1.27 3.404 3.07 3.404zm-1.076 5.68h2.099L37.265 8.85h-2.099l-8.431 12.347zm1.076-7.126c-.759 0-1.288-.653-1.288-1.958s.53-1.958 1.288-1.958c.776 0 1.288.635 1.288 1.958s-.512 1.958-1.288 1.958zm8.378 7.267c1.8 0 3.07-1.323 3.07-3.405 0-2.08-1.27-3.404-3.07-3.404-1.781 0-3.051 1.323-3.051 3.404 0 2.082 1.27 3.405 3.051 3.405zm0-1.447c-.758 0-1.288-.635-1.288-1.958 0-1.322.53-1.957 1.288-1.957.776 0 1.288.652 1.288 1.957 0 1.306-.512 1.958-1.288 1.958z" fill="#2855AF"/><path d="M2 27a3 3 0 013-3h54a3 3 0 013 3v30a3 3 0 01-3 3H5a3 3 0 01-3-3V27z" fill="#fff"/><path fill-rule="evenodd" clip-rule="evenodd" d="M59 26H5a1 1 0 00-1 1v30a1 1 0 001 1h54a1 1 0 001-1V27a1 1 0 00-1-1zM5 24a3 3 0 00-3 3v30a3 3 0 003 3h54a3 3 0 003-3V27a3 3 0 00-3-3H5z" fill="#18B7ED"/><path fill-rule="evenodd" clip-rule="evenodd" d="M52 49H41a1 1 0 00-1 1v1a1 1 0 001 1h11a1 1 0 001-1v-1a1 1 0 00-1-1zm-11-2a3 3 0 00-3 3v1a3 3 0 003 3h11a3 3 0 003-3v-1a3 3 0 00-3-3H41z" fill="#2855AF"/><path fill-rule="evenodd" clip-rule="evenodd" d="M2 33a1 1 0 011-1h57a1 1 0 110 2H3a1 1 0 01-1-1zm0 7a1 1 0 011-1h57a1 1 0 110 2H3a1 1 0 01-1-1z" fill="#18B7ED"/><path fill-rule="evenodd" clip-rule="evenodd" d="M8 48a1 1 0 011-1h18a1 1 0 110 2H9a1 1 0 01-1-1zm0 4a1 1 0 011-1h7a1 1 0 110 2H9a1 1 0 01-1-1z" fill="#2855AF"/><path fill-rule="evenodd" clip-rule="evenodd" d="M7 7a1 1 0 011 1v12a1 1 0 11-2 0V8a1 1 0 011-1zm49 0a1 1 0 011 1v12a1 1 0 11-2 0V8a1 1 0 011-1zM12 2a1 1 0 011 1v8a1 1 0 11-2 0V3a1 1 0 011-1zm39 0a1 1 0 011 1v8a1 1 0 11-2 0V3a1 1 0 011-1z" fill="#18B7ED"/></svg>