<svg xmlns="http://www.w3.org/2000/svg" width="92" height="47" viewBox="0 0 92 47"><g fill="none" fill-rule="evenodd" stroke="#232D4B" stroke-width="2"><path d="M1.757 1c-.135.01-.221.28-.316.438-.2.329-.34.764-.336 1.257L1 44.086c.01.448.123.864.333 1.193.144.225.335.408.572.514l70.08.041c1.301.072 3.723-1.194 4.893-2.744l13.47-17.4c.169-.325.43-.846.586-1.53.196-.65.025-1.853-.408-2.428L76.956 3.895c-.75-.95-2.078-1.875-3.466-2.436-.564-.228-1.151-.417-1.517-.418L1.757 1z"/><path d="M77.782 27.6c-1.859 0-3.346-1.533-3.346-3.345 0-1.813 1.534-3.346 3.346-3.346s3.345 1.533 3.345 3.346c0 1.812-1.487 3.345-3.345 3.345"/></g></svg>