<svg width="60" height="62" viewBox="0 0 60 62" fill="none" xmlns="http://www.w3.org/2000/svg"><ellipse cx="12.579" cy="11" rx="11.579" ry="11" fill="#B5E7FF"/><path fill-rule="evenodd" clip-rule="evenodd" d="M17.88 35.194a1 1 0 01-1 1.041H7.437L8.61 8.093a1 1 0 011-.958h6.14a1 1 0 011 .958l1.13 27.102z" fill="#fff"/><path fill-rule="evenodd" clip-rule="evenodd" d="M9 15.526h8v-5.175H9v5.175zm0 8.281h8v-5.175H9v5.175z" fill="#FFD2D2"/><path d="M16.958 35.228H8.042l1.19-29.053h6.535l1.191 29.053z" stroke="#08B3EC" stroke-width="2" stroke-linecap="round" stroke-linejoin="round"/><path d="M59 59a1 1 0 01-1 1H2a1 1 0 01-1-1V38.539a3 3 0 011.402-2.54l13.656-8.59a3 3 0 011.597-.462H56a3 3 0 013 3V59z" fill="#fff" stroke="#08B3EC" stroke-width="2" stroke-linecap="round" stroke-linejoin="round"/><path fill-rule="evenodd" clip-rule="evenodd" d="M58 59H21V38.816a1 1 0 01.441-.829l11.824-7.97v8.239l12.58-8.239v8.239l6.078-4.167L58 30.017V59z" fill="#FFD2D2"/><path fill-rule="evenodd" clip-rule="evenodd" d="M7.636 59H12v-6a2 2 0 00-2-2h-.364a2 2 0 00-2 2v6zM30 50.254a1.5 1.5 0 003 0v-3.21a1.5 1.5 0 10-3 0v3.21zm6 0a1.5 1.5 0 003 0v-3.21a1.5 1.5 0 10-3 0v3.21zm6 0a1.5 1.5 0 003 0v-3.21a1.5 1.5 0 10-3 0v3.21zm6 0a1.5 1.5 0 003 0v-3.21a1.5 1.5 0 10-3 0v3.21z" fill="#2855AF"/><path d="M21 54.86V38.298l10.875-8.17c.459-.35 1.086-.22 1.401.29a1.2 1.2 0 01.177.631v6.745l10.865-7.828c.475-.322 1.095-.155 1.385.371.097.176.148.377.148.583v6.874l11.493-8.409M21 38.298V54.86m-6-16.562H2" stroke="#08B3EC" stroke-width="2" stroke-linecap="round" stroke-linejoin="round"/></svg>